<svg id="attachment" xmlns="http://www.w3.org/2000/svg" width="17.877" height="28.007" viewBox="0 0 17.877 28.007">
  <g id="_24-px-Icons" data-name="24-px-Icons" transform="translate(0)">
    <g id="ic_attachment">
      <g id="attachment-2" data-name="attachment" transform="translate(0)">
        <g id="Group_4879" data-name="Group 4879" transform="translate(0)">
          <path id="Oval-13" d="M16.685,9.726a1.192,1.192,0,0,1-1.192-1.192c0-3.943-2.941-7.151-6.555-7.151S2.384,4.591,2.384,8.534A1.192,1.192,0,0,1,0,8.534C0,3.277,4.01-1,8.938-1s8.938,4.277,8.938,9.534A1.192,1.192,0,0,1,16.685,9.726Z" transform="translate(0 1)" fill="#6e63a4"/>
          <path id="Line" d="M1.192,20.3A1.192,1.192,0,0,1,0,19.11V7.192a1.192,1.192,0,1,1,2.384,0V19.11A1.192,1.192,0,0,1,1.192,20.3Z" transform="translate(0 2.343)" fill="#6e63a4"/>
          <path id="Oval-13-2" data-name="Oval-13" d="M6.555,23.747A6.562,6.562,0,0,1,0,17.192a1.192,1.192,0,1,1,2.384,0,4.171,4.171,0,1,0,8.343,0,1.192,1.192,0,1,1,2.384,0A6.562,6.562,0,0,1,6.555,23.747Z" transform="translate(0 4.261)" fill="#6e63a4"/>
          <path id="Line-2" data-name="Line" d="M10.192,20.3A1.192,1.192,0,0,1,9,19.11V7.192a1.192,1.192,0,1,1,2.384,0V19.11A1.192,1.192,0,0,1,10.192,20.3Z" transform="translate(1.726 2.343)" fill="#6e63a4"/>
          <path id="Oval-13-3" data-name="Oval-13" d="M11.151,8.863A1.192,1.192,0,0,1,9.959,7.671a1.788,1.788,0,1,0-3.575,0A1.192,1.192,0,0,1,4,7.671a4.171,4.171,0,1,1,8.343,0A1.192,1.192,0,0,1,11.151,8.863Z" transform="translate(0.767 1.863)" fill="#6e63a4"/>
          <path id="Line-3" data-name="Line" d="M5.192,19.11A1.192,1.192,0,0,1,4,17.918V7.192a1.192,1.192,0,1,1,2.384,0V17.918A1.192,1.192,0,0,1,5.192,19.11Z" transform="translate(0.767 2.343)" fill="#6e63a4"/>
          <path id="Line-4" data-name="Line" d="M14.192,19.11A1.192,1.192,0,0,1,13,17.918V7.192a1.192,1.192,0,1,1,2.384,0V17.918A1.192,1.192,0,0,1,14.192,19.11Z" transform="translate(2.493 2.343)" fill="#6e63a4"/>
        </g>
      </g>
    </g>
  </g>
</svg>
