<svg xmlns="http://www.w3.org/2000/svg" width="28" height="24" viewBox="0 0 28 24">
  <g id="image" transform="translate(-2 -4)">
    <path id="Path_4024" data-name="Path 4024" d="M29,8H26V5a1,1,0,0,0-1-1H3A1,1,0,0,0,2,5V23a1,1,0,0,0,1,1H6v3a1,1,0,0,0,1,1H29a1,1,0,0,0,1-1V9A1,1,0,0,0,29,8ZM4,22V6H24V8H7A1,1,0,0,0,6,9V22Zm8-10a2,2,0,1,1-2,2A2,2,0,0,1,12,12ZM25.89,23.46A1,1,0,0,1,25,24H11a1,1,0,0,1-.8-1.6l3-4a1,1,0,0,1,1.25-.29l1.35.67,3.49-3.49a.995.995,0,0,1,1.52.13l5,7A1,1,0,0,1,25.89,23.46Z" fill="#6e63a4"/>
  </g>
</svg>
