<svg xmlns="http://www.w3.org/2000/svg" width="25.53" height="28.007" viewBox="0 0 25.53 28.007">
  <g id="send" transform="translate(148.926 -58)">
    <g id="Group_4878" data-name="Group 4878" transform="translate(-148.926 58)">
      <path id="Path_4028" data-name="Path 4028" d="M59.508,34.167l-.2.075a.1.1,0,0,0,.082,0,.716.716,0,0,0,.118-.078ZM34.153,49.388C34.153,49.173,33.977,49.505,34.153,49.388ZM59.508,34.167l.035-.013C59.529,34.145,59.518,34.152,59.508,34.167Zm-.118.079L34.153,49.388S37.776,51.3,41.611,52.8L57,36.693l-12.7,17.773v7.617l3.215-6.665L57,59.545l2.539-25.39-.051.031a.156.156,0,0,1-.1.061Zm.138-.111c.022-.042.03-.066.015.02C59.724,34.064,59.439,34.045,59.529,34.134Z" transform="translate(-34.074 -34.076)" fill="#6e63a4"/>
    </g>
  </g>
</svg>
